<svg xmlns="http://www.w3.org/2000/svg" width="153.8" height="50" viewBox="0 0 153.8 50"><defs><style>.cls-1{fill:#e6b00e;}.cls-2{fill:#e2962d;}.cls-3{fill:#dac311;}.cls-4{fill:#acb62b;}.cls-5{fill:#8baa1f;}.cls-6{fill:#35a1a7;}.cls-7{fill:#797979;}</style></defs><title>Ativo 2</title><g id="Camada_2" data-name="Camada 2"><g id="fundo_claro" data-name="fundo claro"><path class="cls-1" d="M4.8,20.8l.16,0a20.25,20.25,0,0,1,4.86-9.67,20.23,20.23,0,0,1,10.27,3.4.58.58,0,0,1,.1-.12,23.88,23.88,0,0,1,1.71-1.89c.43-.43.9-.84,1.37-1.26a24.48,24.48,0,0,0-8.67-4A24.83,24.83,0,0,0,8,6.64,25.09,25.09,0,0,0,3.71,11.8a24.67,24.67,0,0,0-3.31,9A26.94,26.94,0,0,1,4.8,20.8Z"/><path class="cls-2" d="M15,5.41c.75.17,1.48.4,2.21.64a19.57,19.57,0,0,1,15.22,0c.73-.24,1.46-.47,2.21-.64a27.47,27.47,0,0,1,4.68-.66,24.51,24.51,0,0,0-29,0A27.19,27.19,0,0,1,15,5.41Z"/><path class="cls-3" d="M27.82,12.54c.59.59,1.17,1.22,1.72,1.88l.09.13a20.23,20.23,0,0,1,10.27-3.4,20.17,20.17,0,0,1,4.86,9.66h.16a27,27,0,0,1,4.4,0,24.47,24.47,0,0,0-3.3-9,24.82,24.82,0,0,0-4.25-5.16,24.87,24.87,0,0,0-6.65.65,24.56,24.56,0,0,0-8.67,4C26.92,11.69,27.39,12.11,27.82,12.54Z"/><path class="cls-4" d="M49.63,22.7c-.71-.06-1.44-.1-2.16-.1a23.21,23.21,0,0,0-2.37.12,24.63,24.63,0,0,0-10,3.22c.05.24.11.48.15.72a26.64,26.64,0,0,1,.43,4.27,20.15,20.15,0,0,1,9.41-3.67,20.13,20.13,0,0,1-12.29,16.3c-.34.68-.7,1.35-1.1,2-.24.39-.49.77-.75,1.15s-.51.68-.77,1l-1.29,1.67.47-.07c.42-.08.83-.16,1.24-.26A24.84,24.84,0,0,0,45.32,39a24.75,24.75,0,0,0,4.29-11.76c.07-.78.11-1.57.11-2.37S49.69,23.41,49.63,22.7Z"/><path class="cls-5" d="M33.33,27a24.78,24.78,0,0,0-5.28-11.36c-.5-.6-1-1.18-1.59-1.75s-1.05-1-1.6-1.46c-.55.46-1.08,1-1.6,1.46s-1.09,1.15-1.59,1.75A24.6,24.6,0,0,0,16.87,25c.2.14.41.26.62.4a27.29,27.29,0,0,1,3.31,2.77,20.22,20.22,0,0,1,4.06-9.31,20.26,20.26,0,0,1,4.35,11.71A20.46,20.46,0,0,1,27.7,39.1c.24.73.46,1.46.63,2.2.11.44.2.89.28,1.34.14.75.24,1.51.32,2.28l0,.22c0,.3,0,.61.05.91.12-.14.23-.29.34-.44.24-.35.47-.7.7-1.06a24.61,24.61,0,0,0,2.15-4.41,24.8,24.8,0,0,0,1.53-7.68A24.93,24.93,0,0,0,33.33,27Z"/><path class="cls-6" d="M27.12,47.28c0-.25,0-.5,0-.74v0c0-.4,0-.8-.08-1.19,0-.07,0-.13,0-.2-.07-.71-.17-1.42-.29-2.11-.08-.42-.17-.84-.26-1.25a24.69,24.69,0,0,0-1.6-4.64,24.71,24.71,0,0,0-4.35-6.51A24.78,24.78,0,0,0,4.62,22.72a23,23,0,0,0-2.36-.12c-.73,0-1.45,0-2.17.1Q0,23.77,0,24.86c0,.8,0,1.59.11,2.37A24.93,24.93,0,0,0,8,43.12a24.67,24.67,0,0,0,11.15,5.94c.41.1.83.18,1.24.26.7.13,1.4.22,2.12.29l.2,0c.39,0,.79.06,1.18.07h.05l.75,0h.37l.74,0h.05c.4,0,.79,0,1.18-.07,0-.39.06-.79.08-1.19v0c0-.24,0-.49,0-.74,0-.06,0-.12,0-.18S27.12,47.34,27.12,47.28Zm-7.43-2.73a20.38,20.38,0,0,1-15-17.29A20.26,20.26,0,0,1,16,32.46a20.26,20.26,0,0,1,5.94,9.83,19.5,19.5,0,0,1,.53,2.78A21,21,0,0,1,19.69,44.55Z"/><path class="cls-7" d="M88,6.78,81.82,12a10,10,0,0,0-7.7-3.56A9,9,0,0,0,67.63,11,8.66,8.66,0,0,0,65,17.51,8.69,8.69,0,0,0,67.63,24a9.12,9.12,0,0,0,6.49,2.54A10,10,0,0,0,81.82,23l6.2,5.2a18.16,18.16,0,0,1-13.9,6.54,18.48,18.48,0,0,1-13-4.9,16.11,16.11,0,0,1-5.3-12.32A16.09,16.09,0,0,1,61.14,5.2,18.68,18.68,0,0,1,88,6.78Z"/><path class="cls-7" d="M91.39,34.25V.72H107a8.93,8.93,0,0,1,6.4,2.46A8,8,0,0,1,116,9.29,6.87,6.87,0,0,1,111.69,16a7.94,7.94,0,0,1,6.73,8.32,9.44,9.44,0,0,1-2.93,7.12,9.93,9.93,0,0,1-7.26,2.79Zm9.14-20.15H105a2.8,2.8,0,0,0,2.84-3A2.84,2.84,0,0,0,105,8.13h-4.42Zm0,12.65h5.68a3.25,3.25,0,0,0,3.41-3.27,3.18,3.18,0,0,0-3.46-3.13h-5.63Z"/><path class="cls-7" d="M153.3,6.78,147.09,12a10,10,0,0,0-7.7-3.56A9,9,0,0,0,132.9,11a8.66,8.66,0,0,0-2.65,6.49A8.69,8.69,0,0,0,132.9,24a9.12,9.12,0,0,0,6.49,2.54,10,10,0,0,0,7.7-3.56l6.21,5.2a18.2,18.2,0,0,1-13.91,6.54,18.5,18.5,0,0,1-13-4.9,16.14,16.14,0,0,1-5.29-12.32A16.12,16.12,0,0,1,126.41,5.2,18.69,18.69,0,0,1,153.3,6.78Z"/><path class="cls-7" d="M55.65,49.84l3.57-8.67h.51l3.57,8.67h-.69l-1-2.36H57.31l-1,2.36Zm1.91-3h3.83l-1.92-4.71Z"/><path class="cls-7" d="M71.24,42l-.39.46a3.73,3.73,0,0,0-2.39-.8,3.65,3.65,0,0,0-2.73,1.12,3.71,3.71,0,0,0-1.1,2.76,3.87,3.87,0,0,0,1.08,2.79,3.75,3.75,0,0,0,2.75,1.1,3.81,3.81,0,0,0,2.63-.95V45.82H68.24v-.6h3.49v3.46A4.49,4.49,0,0,1,68.46,50a4.49,4.49,0,1,1,2.78-8Z"/><path class="cls-7" d="M73.72,49.84V41.17h2.77a2.5,2.5,0,0,1,1.81.72A2.41,2.41,0,0,1,79,43.67a2.49,2.49,0,0,1-1.7,2.43l2.1,3.74h-.71l-2-3.65a.87.87,0,0,1-.26,0h-2v3.63Zm.65-4.23h2.06a1.94,1.94,0,0,0,1.4-.55,1.91,1.91,0,0,0-1.36-3.29h-2.1Z"/><path class="cls-7" d="M88.16,42.31A4.48,4.48,0,0,1,85,50a4.49,4.49,0,1,1,3.17-7.68Zm-.45,6a4,4,0,0,0,0-5.52A3.64,3.64,0,0,0,85,41.63a3.7,3.7,0,0,0-2.74,1.12,4,4,0,0,0,0,5.52A3.69,3.69,0,0,0,85,49.38,3.64,3.64,0,0,0,87.71,48.27Z"/><path class="cls-7" d="M91.29,49.84V41.17h.56l5.52,7.5v-7.5H98v8.67h-.54l-5.54-7.55v7.55Z"/><path class="cls-7" d="M100.41,49.84V41.17h4.72v.6h-4.08V45h3.84v.61h-3.84v3.68h4.17v.6Z"/><path class="cls-7" d="M113.84,42l-.39.46a3.73,3.73,0,0,0-2.39-.8,3.65,3.65,0,0,0-2.73,1.12,3.71,3.71,0,0,0-1.1,2.76,3.87,3.87,0,0,0,1.08,2.79,3.75,3.75,0,0,0,2.75,1.1,3.81,3.81,0,0,0,2.63-.95V45.82h-2.85v-.6h3.49v3.46A4.49,4.49,0,0,1,111.06,50a4.49,4.49,0,1,1,2.78-8Z"/><path class="cls-7" d="M123.41,42.31A4.55,4.55,0,1,1,120.24,41,4.31,4.31,0,0,1,123.41,42.31Zm-.45,6a4,4,0,0,0,0-5.52,3.64,3.64,0,0,0-2.72-1.12,3.7,3.7,0,0,0-2.74,1.12,4,4,0,0,0,0,5.52,3.69,3.69,0,0,0,2.75,1.11A3.64,3.64,0,0,0,123,48.27Zm-3.13-7.7.74-1.8h.81l-1,1.8Z"/><path class="cls-7" d="M133.78,42.48l-.44.41a3.6,3.6,0,0,0-2.87-1.27,3.69,3.69,0,0,0-2.75,1.12,3.88,3.88,0,0,0,2.75,6.65,3.56,3.56,0,0,0,2.89-1.29l.44.41A4.32,4.32,0,0,1,130.47,50a4.41,4.41,0,0,1-3.19-1.28,4.59,4.59,0,0,1,0-6.4A4.42,4.42,0,0,1,130.47,41,4.22,4.22,0,0,1,133.78,42.48Z"/><path class="cls-7" d="M135.53,49.84V41.17h.65v8.67Z"/><path class="cls-7" d="M145.69,42.31A4.48,4.48,0,0,1,142.52,50a4.49,4.49,0,1,1,3.17-7.68Zm-.45,6a4,4,0,0,0,0-5.52,3.88,3.88,0,0,0-5.45,0,3.86,3.86,0,0,0,2.73,6.63A3.63,3.63,0,0,0,145.24,48.27Z"/><path class="cls-7" d="M148.74,47.65a2.53,2.53,0,0,0,2.44,1.74,1.91,1.91,0,0,0,1.5-.52,1.77,1.77,0,0,0,.47-1.21,1.6,1.6,0,0,0-.47-1.22,6.59,6.59,0,0,0-1.6-.93,5.72,5.72,0,0,1-1.71-1,1.81,1.81,0,0,1-.53-1.41,1.91,1.91,0,0,1,.63-1.48,2.27,2.27,0,0,1,1.59-.59,2.34,2.34,0,0,1,2.22,1.27l-.56.29a1.75,1.75,0,0,0-1.66-1,1.47,1.47,0,0,0-1.58,1.44,1.33,1.33,0,0,0,.54,1.17,5.14,5.14,0,0,0,.57.36l.8.37A5.58,5.58,0,0,1,153.16,46a2,2,0,0,1,.64,1.63A2.32,2.32,0,0,1,151.18,50a3,3,0,0,1-3-2.08Z"/></g></g></svg>